<mxfile host="app.diagrams.net" modified="2023-02-06T03:26:38.313Z" agent="5.0 (Windows NT 10.0; Win64; x64) AppleWebKit/537.36 (KHTML, like Gecko) Chrome/109.0.0.0 Safari/537.36" etag="9rgHROVtwdmNBs8KdFoS" version="20.8.16" type="github">
  <diagram id="C5RBs43oDa-KdzZeNtuy" name="Page-1">
    <mxGraphModel dx="756" dy="395" grid="1" gridSize="10" guides="1" tooltips="1" connect="1" arrows="1" fold="1" page="1" pageScale="1" pageWidth="291" pageHeight="413" math="0" shadow="0">
      <root>
        <mxCell id="WIyWlLk6GJQsqaUBKTNV-0" />
        <mxCell id="WIyWlLk6GJQsqaUBKTNV-1" parent="WIyWlLk6GJQsqaUBKTNV-0" />
        <mxCell id="7l1OhoQjSecTlkSr9jfe-1" value="Envia Voto" style="html=1;verticalAlign=bottom;endArrow=diamond;rounded=0;entryX=0.314;entryY=-0.035;entryDx=0;entryDy=0;entryPerimeter=0;exitX=1.001;exitY=1.121;exitDx=0;exitDy=0;exitPerimeter=0;endFill=1;edgeStyle=orthogonalEdgeStyle;" edge="1" parent="WIyWlLk6GJQsqaUBKTNV-1" source="7l1OhoQjSecTlkSr9jfe-15" target="7l1OhoQjSecTlkSr9jfe-18">
          <mxGeometry width="80" relative="1" as="geometry">
            <mxPoint x="190" y="75" as="sourcePoint" />
            <mxPoint x="250" y="135" as="targetPoint" />
          </mxGeometry>
        </mxCell>
        <mxCell id="7l1OhoQjSecTlkSr9jfe-32" value="1" style="edgeLabel;html=1;align=center;verticalAlign=middle;resizable=0;points=[];" vertex="1" connectable="0" parent="7l1OhoQjSecTlkSr9jfe-1">
          <mxGeometry x="-0.7154" y="1" relative="1" as="geometry">
            <mxPoint x="-1" as="offset" />
          </mxGeometry>
        </mxCell>
        <mxCell id="7l1OhoQjSecTlkSr9jfe-10" value="Candidatos" style="swimlane;fontStyle=1;align=center;verticalAlign=top;childLayout=stackLayout;horizontal=1;startSize=26;horizontalStack=0;resizeParent=1;resizeParentMax=0;resizeLast=0;collapsible=1;marginBottom=0;" vertex="1" parent="WIyWlLk6GJQsqaUBKTNV-1">
          <mxGeometry x="410" y="20" width="160" height="180" as="geometry" />
        </mxCell>
        <mxCell id="7l1OhoQjSecTlkSr9jfe-11" value="- partido: text&#xa;- nome: text&#xa;- candidatura: text&#xa;- numero: int" style="text;strokeColor=none;fillColor=none;align=left;verticalAlign=top;spacingLeft=4;spacingRight=4;overflow=hidden;rotatable=0;points=[[0,0.5],[1,0.5]];portConstraint=eastwest;" vertex="1" parent="7l1OhoQjSecTlkSr9jfe-10">
          <mxGeometry y="26" width="160" height="64" as="geometry" />
        </mxCell>
        <mxCell id="7l1OhoQjSecTlkSr9jfe-12" value="" style="line;strokeWidth=1;fillColor=none;align=left;verticalAlign=middle;spacingTop=-1;spacingLeft=3;spacingRight=3;rotatable=0;labelPosition=right;points=[];portConstraint=eastwest;strokeColor=inherit;" vertex="1" parent="7l1OhoQjSecTlkSr9jfe-10">
          <mxGeometry y="90" width="160" height="8" as="geometry" />
        </mxCell>
        <mxCell id="7l1OhoQjSecTlkSr9jfe-13" value="+ part.get()&#xa;+ nome.get()&#xa;+ cand.get()&#xa;+ num.get()&#xa;+ cadastrar()&#xa;" style="text;strokeColor=none;fillColor=none;align=left;verticalAlign=top;spacingLeft=4;spacingRight=4;overflow=hidden;rotatable=0;points=[[0,0.5],[1,0.5]];portConstraint=eastwest;" vertex="1" parent="7l1OhoQjSecTlkSr9jfe-10">
          <mxGeometry y="98" width="160" height="82" as="geometry" />
        </mxCell>
        <mxCell id="7l1OhoQjSecTlkSr9jfe-14" value="Votante" style="swimlane;fontStyle=1;align=center;verticalAlign=top;childLayout=stackLayout;horizontal=1;startSize=26;horizontalStack=0;resizeParent=1;resizeParentMax=0;resizeLast=0;collapsible=1;marginBottom=0;" vertex="1" parent="WIyWlLk6GJQsqaUBKTNV-1">
          <mxGeometry x="30" y="30" width="160" height="90" as="geometry" />
        </mxCell>
        <mxCell id="7l1OhoQjSecTlkSr9jfe-15" value="- votar: num&#xa;" style="text;strokeColor=none;fillColor=none;align=left;verticalAlign=top;spacingLeft=4;spacingRight=4;overflow=hidden;rotatable=0;points=[[0,0.5],[1,0.5]];portConstraint=eastwest;" vertex="1" parent="7l1OhoQjSecTlkSr9jfe-14">
          <mxGeometry y="26" width="160" height="24" as="geometry" />
        </mxCell>
        <mxCell id="7l1OhoQjSecTlkSr9jfe-16" value="" style="line;strokeWidth=1;fillColor=none;align=left;verticalAlign=middle;spacingTop=-1;spacingLeft=3;spacingRight=3;rotatable=0;labelPosition=right;points=[];portConstraint=eastwest;strokeColor=inherit;" vertex="1" parent="7l1OhoQjSecTlkSr9jfe-14">
          <mxGeometry y="50" width="160" height="8" as="geometry" />
        </mxCell>
        <mxCell id="7l1OhoQjSecTlkSr9jfe-17" value="- voto.get()" style="text;strokeColor=none;fillColor=none;align=left;verticalAlign=top;spacingLeft=4;spacingRight=4;overflow=hidden;rotatable=0;points=[[0,0.5],[1,0.5]];portConstraint=eastwest;" vertex="1" parent="7l1OhoQjSecTlkSr9jfe-14">
          <mxGeometry y="58" width="160" height="32" as="geometry" />
        </mxCell>
        <mxCell id="7l1OhoQjSecTlkSr9jfe-18" value="Resultados" style="swimlane;fontStyle=1;align=center;verticalAlign=top;childLayout=stackLayout;horizontal=1;startSize=26;horizontalStack=0;resizeParent=1;resizeParentMax=0;resizeLast=0;collapsible=1;marginBottom=0;" vertex="1" parent="WIyWlLk6GJQsqaUBKTNV-1">
          <mxGeometry x="220" y="120" width="160" height="100" as="geometry" />
        </mxCell>
        <mxCell id="7l1OhoQjSecTlkSr9jfe-19" value="- votos: num&#xa;- candidatos:text" style="text;strokeColor=none;fillColor=none;align=left;verticalAlign=top;spacingLeft=4;spacingRight=4;overflow=hidden;rotatable=0;points=[[0,0.5],[1,0.5]];portConstraint=eastwest;" vertex="1" parent="7l1OhoQjSecTlkSr9jfe-18">
          <mxGeometry y="26" width="160" height="34" as="geometry" />
        </mxCell>
        <mxCell id="7l1OhoQjSecTlkSr9jfe-20" value="" style="line;strokeWidth=1;fillColor=none;align=left;verticalAlign=middle;spacingTop=-1;spacingLeft=3;spacingRight=3;rotatable=0;labelPosition=right;points=[];portConstraint=eastwest;strokeColor=inherit;" vertex="1" parent="7l1OhoQjSecTlkSr9jfe-18">
          <mxGeometry y="60" width="160" height="8" as="geometry" />
        </mxCell>
        <mxCell id="7l1OhoQjSecTlkSr9jfe-21" value="- votos.count()" style="text;strokeColor=none;fillColor=none;align=left;verticalAlign=top;spacingLeft=4;spacingRight=4;overflow=hidden;rotatable=0;points=[[0,0.5],[1,0.5]];portConstraint=eastwest;" vertex="1" parent="7l1OhoQjSecTlkSr9jfe-18">
          <mxGeometry y="68" width="160" height="32" as="geometry" />
        </mxCell>
        <mxCell id="7l1OhoQjSecTlkSr9jfe-23" value="Recebe Voto" style="html=1;verticalAlign=bottom;endArrow=none;rounded=0;startArrow=diamond;startFill=1;endFill=0;edgeStyle=orthogonalEdgeStyle;entryX=0.75;entryY=0;entryDx=0;entryDy=0;exitX=-0.01;exitY=0.098;exitDx=0;exitDy=0;exitPerimeter=0;" edge="1" parent="WIyWlLk6GJQsqaUBKTNV-1" source="7l1OhoQjSecTlkSr9jfe-10" target="7l1OhoQjSecTlkSr9jfe-18">
          <mxGeometry width="80" relative="1" as="geometry">
            <mxPoint x="380" y="40" as="sourcePoint" />
            <mxPoint x="330" y="130" as="targetPoint" />
          </mxGeometry>
        </mxCell>
        <mxCell id="7l1OhoQjSecTlkSr9jfe-33" value="1,..*" style="edgeLabel;html=1;align=center;verticalAlign=middle;resizable=0;points=[];" vertex="1" connectable="0" parent="7l1OhoQjSecTlkSr9jfe-23">
          <mxGeometry x="0.8073" relative="1" as="geometry">
            <mxPoint as="offset" />
          </mxGeometry>
        </mxCell>
        <mxCell id="7l1OhoQjSecTlkSr9jfe-25" value="Dados" style="swimlane;fontStyle=0;childLayout=stackLayout;horizontal=1;startSize=26;fillColor=none;horizontalStack=0;resizeParent=1;resizeParentMax=0;resizeLast=0;collapsible=1;marginBottom=0;" vertex="1" parent="WIyWlLk6GJQsqaUBKTNV-1">
          <mxGeometry x="250" y="300" width="140" height="78" as="geometry" />
        </mxCell>
        <mxCell id="7l1OhoQjSecTlkSr9jfe-26" value="+ candidatos: txt" style="text;strokeColor=none;fillColor=none;align=left;verticalAlign=top;spacingLeft=4;spacingRight=4;overflow=hidden;rotatable=0;points=[[0,0.5],[1,0.5]];portConstraint=eastwest;" vertex="1" parent="7l1OhoQjSecTlkSr9jfe-25">
          <mxGeometry y="26" width="140" height="26" as="geometry" />
        </mxCell>
        <mxCell id="7l1OhoQjSecTlkSr9jfe-28" value="+ votos: txt" style="text;strokeColor=none;fillColor=none;align=left;verticalAlign=top;spacingLeft=4;spacingRight=4;overflow=hidden;rotatable=0;points=[[0,0.5],[1,0.5]];portConstraint=eastwest;" vertex="1" parent="7l1OhoQjSecTlkSr9jfe-25">
          <mxGeometry y="52" width="140" height="26" as="geometry" />
        </mxCell>
        <mxCell id="7l1OhoQjSecTlkSr9jfe-29" style="edgeStyle=orthogonalEdgeStyle;rounded=0;orthogonalLoop=1;jettySize=auto;html=1;entryX=0.443;entryY=-0.009;entryDx=0;entryDy=0;startArrow=none;startFill=0;endArrow=diamond;endFill=1;entryPerimeter=0;exitX=0.484;exitY=1.119;exitDx=0;exitDy=0;exitPerimeter=0;" edge="1" parent="WIyWlLk6GJQsqaUBKTNV-1" source="7l1OhoQjSecTlkSr9jfe-21" target="7l1OhoQjSecTlkSr9jfe-25">
          <mxGeometry relative="1" as="geometry">
            <mxPoint x="575" y="389" as="sourcePoint" />
            <mxPoint x="575" y="550" as="targetPoint" />
            <Array as="points">
              <mxPoint x="310" y="224" />
              <mxPoint x="310" y="270" />
              <mxPoint x="312" y="270" />
            </Array>
          </mxGeometry>
        </mxCell>
        <mxCell id="7l1OhoQjSecTlkSr9jfe-30" value="Armazena Resultados" style="edgeLabel;html=1;align=center;verticalAlign=middle;resizable=0;points=[];" vertex="1" connectable="0" parent="7l1OhoQjSecTlkSr9jfe-29">
          <mxGeometry x="-0.134" y="-2" relative="1" as="geometry">
            <mxPoint as="offset" />
          </mxGeometry>
        </mxCell>
        <mxCell id="7l1OhoQjSecTlkSr9jfe-34" value="1..*" style="edgeLabel;html=1;align=center;verticalAlign=middle;resizable=0;points=[];" vertex="1" connectable="0" parent="7l1OhoQjSecTlkSr9jfe-29">
          <mxGeometry x="-0.8121" y="1" relative="1" as="geometry">
            <mxPoint x="15" y="7" as="offset" />
          </mxGeometry>
        </mxCell>
      </root>
    </mxGraphModel>
  </diagram>
</mxfile>
